<svg width="24" height="23" viewBox="0 0 24 23" fill="none" xmlns="http://www.w3.org/2000/svg">
<path d="M0 1.81579C0 0.812957 0.805888 0 1.8 0H22.2C23.1941 0 24 0.812957 24 1.81579C24 2.81862 23.1941 3.63158 22.2 3.63158H1.8C0.805887 3.63158 0 2.81862 0 1.81579Z" fill="white"/>
<path d="M6 11.5C6 10.4972 6.80589 9.68421 7.8 9.68421H22.2C23.1941 9.68421 24 10.4972 24 11.5C24 12.5028 23.1941 13.3158 22.2 13.3158H7.8C6.80589 13.3158 6 12.5028 6 11.5Z" fill="white"/>
<path d="M12 21.1842C12 20.1814 12.8059 19.3684 13.8 19.3684H22.2C23.1941 19.3684 24 20.1814 24 21.1842C24 22.187 23.1941 23 22.2 23H13.8C12.8059 23 12 22.187 12 21.1842Z" fill="white"/>
</svg>
