<svg width="25" height="26" viewBox="0 0 25 26" fill="none" xmlns="http://www.w3.org/2000/svg">
<path fill-rule="evenodd" clip-rule="evenodd" d="M5.7349 6.24559C8.45083 3.52966 12.8824 3.55781 15.6331 6.30847C18.3837 9.05914 18.4119 13.4907 15.6959 16.2066C12.98 18.9226 8.54845 18.8944 5.79779 16.1437C3.04712 13.3931 3.01897 8.96152 5.7349 6.24559ZM18.0919 3.84966C13.9659 -0.276338 7.31854 -0.31857 3.24464 3.75533C-0.829257 7.82923 -0.787025 14.4766 3.33897 18.6026C7.04073 22.3043 12.772 22.7189 16.8535 19.823L21.9373 24.9068C22.625 25.5945 23.7329 25.6015 24.4119 24.9225C25.0908 24.2436 25.0838 23.1357 24.3961 22.448L19.3123 17.3642C22.2082 13.2827 21.7936 7.55142 18.0919 3.84966Z" fill="white"/>
</svg>
