<svg width="15" height="15" viewBox="0 0 15 15" fill="none" xmlns="http://www.w3.org/2000/svg">
<path d="M3.11457 4.49818C3.86982 4.49818 4.48207 3.88593 4.48207 3.13068C4.48207 2.37543 3.86982 1.76318 3.11457 1.76318C2.35932 1.76318 1.74707 2.37543 1.74707 3.13068C1.74707 3.88593 2.35932 4.49818 3.11457 4.49818Z" fill="#071F5D"/>
<path d="M5.77332 5.53442V13.1213H8.12894V9.36942C8.12894 8.37942 8.3152 7.42067 9.5427 7.42067C10.7533 7.42067 10.7683 8.55255 10.7683 9.43192V13.1219H13.1252V8.9613C13.1252 6.91755 12.6852 5.34692 10.2964 5.34692C9.14957 5.34692 8.38082 5.9763 8.06645 6.57192H8.03457V5.53442H5.77332ZM1.93457 5.53442H4.29395V13.1213H1.93457V5.53442Z" fill="#071F5D"/>
</svg>
