<svg width="15" height="15" viewBox="0 0 15 15" fill="none" xmlns="http://www.w3.org/2000/svg">
<path d="M13.4956 4.50188C13.4244 4.23776 13.2853 3.99688 13.0921 3.80323C12.8989 3.60959 12.6583 3.46992 12.3943 3.39813C11.4156 3.12938 7.49996 3.125 7.49996 3.125C7.49996 3.125 3.58496 3.12063 2.60559 3.3775C2.34179 3.4526 2.10173 3.59424 1.90844 3.78884C1.71516 3.98344 1.57514 4.22446 1.50184 4.48875C1.24371 5.4675 1.24121 7.49751 1.24121 7.49751C1.24121 7.49751 1.23871 9.5375 1.49496 10.5063C1.63871 11.0419 2.06059 11.465 2.59684 11.6094C3.58559 11.8781 7.49059 11.8825 7.49059 11.8825C7.49059 11.8825 11.4062 11.8869 12.385 11.6306C12.649 11.559 12.8898 11.4196 13.0835 11.2264C13.2772 11.0331 13.4171 10.7927 13.4893 10.5288C13.7481 9.55063 13.75 7.52126 13.75 7.52126C13.75 7.52126 13.7625 5.48063 13.4956 4.50188ZM6.24746 9.37813L6.25059 5.62813L9.50496 7.50626L6.24746 9.37813Z" fill="#071F5D"/>
</svg>
