<svg width="21" height="28" viewBox="0 0 21 28" fill="none" xmlns="http://www.w3.org/2000/svg">
<path fill-rule="evenodd" clip-rule="evenodd" d="M10.4927 2.04449C9.48603 3.29007 7.52197 5.79521 5.70197 8.54976C4.63991 10.1572 3.63859 11.8321 2.90578 13.3796C2.16121 14.952 1.74274 16.2937 1.74274 17.2657C1.74274 22.0249 5.73649 26.2756 10.4564 26.2756C15.2157 26.2756 19.2573 22.2435 19.2573 17.5243C19.2573 16.5502 18.8373 15.1935 18.0909 13.5978C17.3565 12.0276 16.3532 10.3232 15.2898 8.68565C13.4648 5.87528 11.4961 3.31264 10.4927 2.04449ZM9.55973 0.44249C10.0502 -0.153091 10.961 -0.14525 11.4429 0.452738C12.2205 1.41774 14.5833 4.40776 16.756 7.75349C17.8418 9.42551 18.8914 11.2036 19.6725 12.8735C20.4417 14.5179 21 16.1587 21 17.5243C21 23.1858 16.1883 28 10.4564 28C4.68526 28 0 22.8871 0 17.2657C0 15.8996 0.558454 14.2724 1.32767 12.648C2.10864 10.9987 3.15795 9.24883 4.2433 7.60617C6.4151 4.31918 8.778 1.39177 9.55973 0.44249Z" fill="url(#paint0_linear)"/>
<path fill-rule="evenodd" clip-rule="evenodd" d="M13.358 16.2648C13.2062 16.086 12.9785 15.9724 12.724 15.9724C12.3545 15.9724 12.0415 16.212 11.9351 16.5428C11.6614 17.0743 11.0591 17.4381 10.4149 17.4381C9.66371 17.4381 9.02938 16.9431 8.82689 16.2648C8.67504 16.086 8.44738 15.9724 8.19291 15.9724C7.83325 15.9724 7.52717 16.1993 7.41294 16.5164C7.14436 17.0622 6.53858 17.4381 5.88378 17.4381C5.13259 17.4381 4.49826 16.9431 4.29577 16.2648C4.14392 16.086 3.91626 15.9724 3.66179 15.9724C3.31218 15.9724 3.0132 16.1868 2.89185 16.49C2.86171 16.5653 2.83359 16.6629 2.83477 16.7554C2.83425 16.7673 2.83398 16.7794 2.83398 16.7915C2.83398 16.8116 2.83472 16.8315 2.83615 16.8512C2.8368 16.8957 2.83734 16.9387 2.83734 16.9786C2.83734 21.3973 5.66788 25.1128 10.4148 25.0239C15.1618 24.935 18.0796 21.4418 18.0796 17.0231C18.0796 16.9733 18.0804 16.9236 18.0813 16.8741L18.0813 16.8739L18.0813 16.8733C18.0815 16.8593 18.0818 16.8454 18.082 16.8315C18.0826 16.8182 18.0829 16.8049 18.0829 16.7915C18.0829 16.7851 18.0829 16.7787 18.0827 16.7724C18.0833 16.7076 18.0759 16.6567 18.0547 16.5785C17.9599 16.2294 17.6379 15.9724 17.2551 15.9724C16.8758 15.9724 16.5561 16.2248 16.4582 16.5691C16.1799 17.0863 15.5795 17.4381 14.946 17.4381C14.1948 17.4381 13.5605 16.9431 13.358 16.2648Z" fill="url(#paint1_linear)"/>
<defs>
<linearGradient id="paint0_linear" x1="0" y1="0" x2="22.4009" y2="35.1703" gradientUnits="userSpaceOnUse">
<stop stop-color="#071F5D"/>
<stop offset="1" stop-color="#01478A"/>
</linearGradient>
<linearGradient id="paint1_linear" x1="2.83398" y1="15.9724" x2="7.02969" y2="30.7669" gradientUnits="userSpaceOnUse">
<stop stop-color="#071F5D"/>
<stop offset="1" stop-color="#01478A"/>
</linearGradient>
</defs>
</svg>
