<svg width="24" height="14" viewBox="0 0 24 14" fill="none" xmlns="http://www.w3.org/2000/svg">
<path d="M23.6179 2.90344L15.6002 5.46167L13.7068 4.44786C13.3736 4.26944 13.0061 4.17649 12.6336 4.17633H10.5002V2.24832H12.6002C12.9317 2.24832 13.2002 1.96073 13.2002 1.60565V0.962982C13.2002 0.607907 12.9317 0.320312 12.6002 0.320312H6.6001C6.2686 0.320312 6.00009 0.607907 6.00009 0.962982V1.60565C6.00009 1.96073 6.2686 2.24832 6.6001 2.24832H8.70014V4.17633H6.6001L1.41452 3.16654C1.3429 3.15237 1.27022 3.14525 1.19739 3.14525C0.550134 3.14525 0 3.70879 0 4.43099V8.24483C0 8.86581 0.414757 9.39842 0.985515 9.50928L3.60006 10.019V11.8884C3.60006 12.5981 4.13744 13.1737 4.80008 13.1737H15.0989C15.4195 13.1737 15.727 13.0363 15.9524 12.7917L23.9123 4.16589C23.9685 4.10564 24 4.0237 24 3.93854V3.21233C24.0004 2.99904 23.8095 2.8448 23.6179 2.90344ZM3.60006 8.05926L1.80003 7.7086V5.20099L3.60006 5.55164V8.05926ZM20.6002 11.4598C20.6002 12.4061 21.3165 13.1737 22.2003 13.1737C23.0842 13.1737 23.8005 12.4065 23.8005 11.4598C23.8005 10.5131 22.2003 8.03235 22.2003 8.03235C22.2003 8.03235 20.6002 10.5135 20.6002 11.4598Z" fill="url(#paint0_linear)"/>
<defs>
<linearGradient id="paint0_linear" x1="0" y1="0.320313" x2="5.44933" y2="21.6207" gradientUnits="userSpaceOnUse">
<stop stop-color="#071F5D"/>
<stop offset="1" stop-color="#01478A"/>
</linearGradient>
</defs>
</svg>
