<svg width="10" height="13" viewBox="0 0 10 13" fill="none" xmlns="http://www.w3.org/2000/svg">
<path d="M1.89498 0.642403L2.61551 0.432775C3.29184 0.236554 4.01304 0.554042 4.30299 1.17439L4.87821 2.41022C5.12866 2.9483 4.99004 3.58145 4.53402 3.97511L3.26573 5.07078C3.34341 5.72648 3.58581 6.37181 3.99161 7.00679C4.37718 7.62118 4.8943 8.15891 5.51236 8.58814L7.03578 8.12501C7.61368 7.95011 8.24246 8.15182 8.59603 8.62531L9.42169 9.72829C9.83352 10.2792 9.75986 11.0385 9.24893 11.5052L8.70117 12.0056C8.15608 12.5034 7.37729 12.6844 6.65743 12.4797C4.95723 11.997 3.3943 10.5644 1.96797 8.18168C0.539638 5.79534 0.0354016 3.76975 0.455933 2.10736C0.632717 1.40779 1.17981 0.850202 1.89498 0.642403Z" fill="#EBF4FA"/>
</svg>
