<svg width="40" height="40" viewBox="0 0 40 40" fill="none" xmlns="http://www.w3.org/2000/svg">
<path fill-rule="evenodd" clip-rule="evenodd" d="M20 40C31.0457 40 40 31.0457 40 20C40 8.9543 31.0457 0 20 0C8.9543 0 0 8.9543 0 20C0 31.0457 8.9543 40 20 40ZM19.0966 11.9765C18.5313 11.3709 17.5822 11.3382 16.9765 11.9034C16.3709 12.4687 16.3382 13.4179 16.9034 14.0235L22.9482 20.5L16.9034 26.9765C16.3382 27.5822 16.3709 28.5313 16.9765 29.0966C17.5822 29.6618 18.5313 29.6291 19.0966 29.0235L27.0518 20.5L19.0966 11.9765Z" fill="white"/>
</svg>
