<svg width="20" height="20" viewBox="0 0 20 20" fill="none" xmlns="http://www.w3.org/2000/svg">
<path fill-rule="evenodd" clip-rule="evenodd" d="M4.56997 4.5702C6.65276 2.48741 10.0545 2.51224 12.1679 4.62566C14.2813 6.73909 14.3062 10.1408 12.2234 12.2236C10.1406 14.3064 6.73885 14.2816 4.62543 12.1681C2.51201 10.0547 2.48718 6.653 4.56997 4.5702ZM14.0535 2.74004C10.8834 -0.430092 5.78081 -0.467337 2.65662 2.65685C-0.467569 5.78105 -0.430324 10.8836 2.73981 14.0538C5.58399 16.8979 9.98367 17.2204 13.1145 15.0004L17.0206 18.9064C17.549 19.4348 18.3994 19.441 18.9201 18.9203C19.4408 18.3996 19.4346 17.5492 18.9062 17.0208L15.0001 13.1148C17.2201 9.9839 16.8977 5.58423 14.0535 2.74004Z" fill="#01478A"/>
</svg>
