<svg width="210" height="210" viewBox="0 0 210 210" fill="none" xmlns="http://www.w3.org/2000/svg">
<path d="M105 6C105 2.68629 107.689 -0.017888 110.997 0.171336C131.05 1.31823 150.4 8.19792 166.717 20.0532C184.656 33.0867 198.009 51.4647 204.861 72.5532C211.713 93.6418 211.713 116.358 204.861 137.447C198.009 158.535 184.656 176.913 166.717 189.947C148.778 202.98 127.174 210 105 210C82.8262 210 61.2215 202.98 43.2825 189.947C25.3435 176.913 11.9911 158.535 5.13906 137.447C-1.09363 118.265 -1.65704 97.7354 3.44885 78.3096C4.29122 75.1048 7.69388 73.3833 10.8454 74.4073L14.4119 75.5661C17.5634 76.5901 19.2671 79.9717 18.4571 83.1849C14.3598 99.4383 14.9135 116.561 20.1182 132.58C25.9425 150.505 37.292 166.126 52.5402 177.205C67.7883 188.283 86.1522 194.25 105 194.25C123.848 194.25 142.212 188.283 157.46 177.205C172.708 166.126 184.058 150.505 189.882 132.58C195.706 114.654 195.706 95.3455 189.882 77.4202C184.058 59.495 172.708 43.8736 157.46 32.7952C143.834 22.8954 127.72 17.0774 110.996 15.9516C107.69 15.729 105 13.0637 105 9.75L105 6Z" fill="url(#paint0_angular)"/>
<defs>
<radialGradient id="paint0_angular" cx="0" cy="0" r="1" gradientUnits="userSpaceOnUse" gradientTransform="translate(105 105) rotate(-90) scale(105 104.813)">
<stop stop-color="#FFD749"/>
<stop offset="1" stop-color="#FFBA49"/>
</radialGradient>
</defs>
</svg>
