<svg width="24" height="14" viewBox="0 0 24 14" fill="none" xmlns="http://www.w3.org/2000/svg">
<path d="M23.6179 2.9032L15.6002 5.46143L13.7068 4.44761C13.3736 4.2692 13.0061 4.17624 12.6336 4.17609H10.5002V2.24808H12.6002C12.9317 2.24808 13.2002 1.96048 13.2002 1.60541V0.962738C13.2002 0.607663 12.9317 0.320068 12.6002 0.320068H6.6001C6.2686 0.320068 6.00009 0.607663 6.00009 0.962738V1.60541C6.00009 1.96048 6.2686 2.24808 6.6001 2.24808H8.70014V4.17609H6.6001L1.41452 3.16629C1.3429 3.15213 1.27022 3.14501 1.19739 3.145C0.550134 3.145 0 3.70854 0 4.43074V8.24459C0 8.86557 0.414757 9.39818 0.985515 9.50904L3.60006 10.0188V11.8881C3.60006 12.5979 4.13744 13.1735 4.80008 13.1735H15.0989C15.4195 13.1735 15.727 13.0361 15.9524 12.7915L23.9123 4.16564C23.9685 4.10539 24 4.02345 24 3.9383V3.21208C24.0004 2.9988 23.8095 2.84456 23.6179 2.9032ZM3.60006 8.05902L1.80003 7.70836V5.20074L3.60006 5.5514V8.05902ZM20.6002 11.4595C20.6002 12.4059 21.3165 13.1735 22.2003 13.1735C23.0842 13.1735 23.8005 12.4063 23.8005 11.4595C23.8005 10.5128 22.2003 8.0321 22.2003 8.0321C22.2003 8.0321 20.6002 10.5132 20.6002 11.4595Z" fill="url(#paint0_linear)"/>
<defs>
<linearGradient id="paint0_linear" x1="0" y1="0.320068" x2="5.44933" y2="21.6204" gradientUnits="userSpaceOnUse">
<stop stop-color="#071F5D"/>
<stop offset="1" stop-color="#01478A"/>
</linearGradient>
</defs>
</svg>
