<svg width="20" height="21" viewBox="0 0 20 21" fill="none" xmlns="http://www.w3.org/2000/svg">
<path d="M15.86 9.43365H16.4162C16.2949 8.09324 15.7653 6.86984 14.9505 5.89084L14.5582 6.28397C14.3293 6.51331 13.9585 6.51331 13.7296 6.28397C13.5008 6.05462 13.5008 5.68303 13.7296 5.45368L14.122 5.06056C13.145 4.24401 11.9241 3.71334 10.5865 3.5918V4.14921C10.5865 4.47375 10.3245 4.73637 10.0006 4.73637C9.67672 4.73637 9.41465 4.47375 9.41465 4.14921V3.5918C8.07703 3.71334 6.85617 4.24405 5.87922 5.06056L6.27152 5.45368C6.50039 5.68303 6.50039 6.05462 6.27152 6.28397C6.04266 6.51331 5.67184 6.51331 5.44297 6.28397L5.05066 5.89084C4.23582 6.86984 3.70625 8.09324 3.58496 9.43365H4.14121C4.46508 9.43365 4.72715 9.69627 4.72715 10.0208C4.72715 10.3454 4.46508 10.608 4.14121 10.608H3.58496C3.70625 11.9484 4.23586 13.1718 5.05066 14.1508L5.44297 13.7577C5.67184 13.5283 6.04266 13.5283 6.27152 13.7577C6.50039 13.987 6.50039 14.3586 6.27152 14.5879L5.87922 14.9811C6.85617 15.7976 8.07707 16.3283 9.41465 16.4498V15.8924C9.41465 15.5679 9.67672 15.3053 10.0006 15.3053C10.3245 15.3053 10.5865 15.5679 10.5865 15.8924V16.4498C11.9241 16.3283 13.145 15.7976 14.122 14.9811L13.7296 14.5879C13.5008 14.3586 13.5008 13.987 13.7296 13.7577C13.9585 13.5283 14.3293 13.5283 14.5582 13.7577L14.9505 14.1508C15.7653 13.1718 16.2949 11.9483 16.4162 10.608H15.86C15.5361 10.608 15.274 10.3454 15.274 10.0208C15.274 9.69627 15.5361 9.43365 15.86 9.43365ZM12.7586 12.7846C12.5297 13.0139 12.1589 13.0139 11.93 12.7846L9.58629 10.4359C9.47645 10.3259 9.41465 10.1768 9.41465 10.0208V6.49785C9.41465 6.17331 9.67672 5.91069 10.0006 5.91069C10.3245 5.91069 10.5865 6.17331 10.5865 6.49785V9.77769L12.7586 11.9543C12.9875 12.1837 12.9875 12.5552 12.7586 12.7846Z" fill="url(#paint0_linear)"/>
<path d="M10 0C4.50742 0 0 4.51682 0 10.0208C0 15.5249 4.50742 20.0417 10 20.0417C15.4926 20.0417 20 15.5249 20 10.0208C20 4.51682 15.4926 0 10 0ZM10 17.6539C5.81883 17.6539 2.38281 14.2465 2.38281 10.0208C2.38281 5.89574 5.73773 2.38778 10 2.38778C14.1811 2.38778 17.6172 5.79514 17.6172 10.0208C17.6172 14.2107 14.217 17.6539 10 17.6539Z" fill="url(#paint1_linear)"/>
<defs>
<linearGradient id="paint0_linear" x1="3.58496" y1="3.5918" x2="12.4265" y2="22.0621" gradientUnits="userSpaceOnUse">
<stop stop-color="#071F5D"/>
<stop offset="1" stop-color="#01478A"/>
</linearGradient>
<linearGradient id="paint1_linear" x1="0" y1="0" x2="13.7812" y2="28.7895" gradientUnits="userSpaceOnUse">
<stop stop-color="#071F5D"/>
<stop offset="1" stop-color="#01478A"/>
</linearGradient>
</defs>
</svg>
