<svg width="18" height="23" viewBox="0 0 18 23" fill="none" xmlns="http://www.w3.org/2000/svg">
<path d="M9 4.12573C6.27531 4.12573 4.05859 6.34703 4.05859 9.07736C4.05859 11.8077 6.27531 14.029 9 14.029C11.7247 14.029 13.9414 11.8077 13.9414 9.07736C13.9414 6.34703 11.7247 4.12573 9 4.12573ZM8.42276 11.1092L6.56337 9.26479L7.47023 8.34676L8.41562 9.28456L10.5262 7.15798L11.4402 8.06887L8.42276 11.1092Z" fill="url(#paint0_linear)"/>
<path d="M16.7776 7.38901C16.5526 7.21067 16.4722 6.90999 16.578 6.64282C16.8118 6.05236 16.784 5.36455 16.4424 4.77164C16.1008 4.17873 15.5203 3.81062 14.8931 3.71835C14.6093 3.67658 14.3896 3.45647 14.3479 3.17207C14.2559 2.54359 13.8886 1.96188 13.2969 1.61956C12.7052 1.27725 12.0188 1.24935 11.4296 1.48367C11.163 1.58972 10.8629 1.50916 10.6849 1.28371C10.2916 0.78557 9.6832 0.46582 9 0.46582C8.3168 0.46582 7.70845 0.78557 7.31507 1.28371C7.13709 1.50912 6.83704 1.58968 6.57042 1.48367C5.98119 1.24935 5.2948 1.27725 4.70312 1.61956C4.11145 1.96188 3.74415 2.54359 3.65202 3.17211C3.61034 3.45651 3.39069 3.67663 3.10688 3.71839C2.47971 3.81062 1.8992 4.17873 1.5576 4.77164C1.216 5.36455 1.18815 6.05236 1.42199 6.64282C1.52782 6.90999 1.44743 7.21067 1.22244 7.38901C0.725336 7.78321 0.40625 8.39283 0.40625 9.07745C0.40625 9.76208 0.725336 10.3717 1.22244 10.7659C1.44738 10.9442 1.52778 11.2449 1.42199 11.5121C1.18815 12.1025 1.216 12.7904 1.5576 13.3833C1.8992 13.9762 2.47971 14.3442 3.10692 14.4366C3.39073 14.4783 3.61039 14.6984 3.65207 14.9828C3.74415 15.6114 4.11149 16.1931 4.70317 16.5354C5.29485 16.8777 5.98123 16.9056 6.57046 16.6713C6.83708 16.5652 7.13713 16.6458 7.31511 16.8712C7.70845 17.3693 8.3168 17.6891 9 17.6891C9.6832 17.6891 10.2916 17.3693 10.6849 16.8712C10.8629 16.6458 11.163 16.5652 11.4296 16.6712C12.0188 16.9056 12.7052 16.8777 13.2969 16.5353C13.8886 16.193 14.2559 15.6113 14.348 14.9828C14.3897 14.6984 14.6093 14.4783 14.8931 14.4365C15.5203 14.3442 16.1008 13.9761 16.4424 13.3832C16.784 12.7903 16.8119 12.1025 16.5781 11.512C16.4722 11.2449 16.5526 10.9442 16.7776 10.7659C17.2747 10.3717 17.5938 9.76208 17.5938 9.07745C17.5938 8.39283 17.2747 7.78321 16.7776 7.38901ZM9 15.3209C5.56452 15.3209 2.76953 12.5201 2.76953 9.07745C2.76953 5.63482 5.56452 2.83402 9 2.83402C12.4355 2.83402 15.2305 5.63482 15.2305 9.07745C15.2305 12.5201 12.4355 15.3209 9 15.3209Z" fill="url(#paint1_linear)"/>
<path d="M11.3892 18.0128C10.7518 18.6327 9.90299 18.9809 9 18.9809C8.09701 18.9809 7.24816 18.6327 6.61077 18.0128C6.0505 18.1543 5.47042 18.1504 4.91797 18.0066V22.5116H6.10382L9 21.4751L11.8962 22.5116H13.082V18.0066C12.5296 18.1504 11.9494 18.1542 11.3892 18.0128Z" fill="url(#paint2_linear)"/>
<defs>
<linearGradient id="paint0_linear" x1="4.05859" y1="4.12573" x2="10.8683" y2="18.3517" gradientUnits="userSpaceOnUse">
<stop stop-color="#071F5D"/>
<stop offset="1" stop-color="#01478A"/>
</linearGradient>
<linearGradient id="paint1_linear" x1="0.40625" y1="0.46582" x2="12.2494" y2="25.2068" gradientUnits="userSpaceOnUse">
<stop stop-color="#071F5D"/>
<stop offset="1" stop-color="#01478A"/>
</linearGradient>
<linearGradient id="paint2_linear" x1="4.91797" y1="18.0066" x2="6.87845" y2="25.444" gradientUnits="userSpaceOnUse">
<stop stop-color="#071F5D"/>
<stop offset="1" stop-color="#01478A"/>
</linearGradient>
</defs>
</svg>
