<svg width="21" height="22" viewBox="0 0 21 22" fill="none" xmlns="http://www.w3.org/2000/svg">
<path d="M14.1413 9.44765C14.0882 9.27717 14.0083 9.12649 13.902 8.99577C13.7956 8.86514 13.666 8.761 13.5131 8.68342C13.3602 8.60597 13.184 8.56714 12.9845 8.56714C12.7762 8.56714 12.5956 8.60814 12.4427 8.6901C12.2898 8.77211 12.1612 8.87949 12.0572 9.01242C11.953 9.14535 11.8754 9.29714 11.8245 9.46766C11.7735 9.63827 11.748 9.8122 11.748 9.98933C11.748 10.171 11.7746 10.3472 11.8278 10.5176C11.881 10.6882 11.9596 10.84 12.0638 10.9728C12.1679 11.1058 12.2975 11.2121 12.4527 11.2918C12.6078 11.3716 12.7851 11.4114 12.9845 11.4114C13.1928 11.4114 13.3745 11.3694 13.5296 11.2852C13.6847 11.2011 13.8132 11.0914 13.9152 10.9562C14.0171 10.8211 14.0936 10.6682 14.1446 10.4977C14.1955 10.3271 14.221 10.1533 14.221 9.97596C14.221 9.79437 14.1945 9.61822 14.1413 9.44765Z" fill="url(#paint0_linear)"/>
<path d="M15.7663 5.09571C15.4979 3.97342 14.8872 2.95413 14.0113 2.18166C12.9819 1.27385 11.6582 0.773926 10.2842 0.773926C7.17626 0.773926 4.64777 3.30153 4.64777 6.40836C4.64777 6.45658 4.64838 6.50484 4.64961 6.5531C4.60191 6.55154 4.55429 6.5508 4.50667 6.5508C2.0217 6.5508 0 8.57179 0 11.0559C0 13.54 2.0217 15.561 4.50671 15.561H15.7655C18.6518 15.561 21 13.2137 21 10.3284C21 7.44327 18.6523 5.09599 15.7663 5.09571ZM10.0957 11.7504C9.95613 11.8878 9.79543 12.0029 9.61378 12.0959C9.43199 12.189 9.23922 12.2599 9.03541 12.3086C8.83153 12.3573 8.63211 12.3817 8.43712 12.3817C8.09579 12.3817 7.7823 12.3119 7.49643 12.1724C7.21059 12.0328 6.96462 11.8479 6.75851 11.6175C6.55241 11.3872 6.39286 11.1257 6.27986 10.8333C6.16686 10.5409 6.11034 10.2442 6.11034 9.94283C6.11034 9.65935 6.16354 9.37694 6.26989 9.09554C6.37625 8.81428 6.53133 8.56286 6.73526 8.34128C6.93906 8.1198 7.18729 7.94037 7.47981 7.80302C7.77234 7.66575 8.10473 7.59699 8.47699 7.59699C8.92012 7.59699 9.30464 7.69232 9.63039 7.88277C9.95613 8.0733 10.1988 8.32136 10.3583 8.62706L9.52067 9.21186C9.46747 9.08788 9.39988 8.98488 9.31793 8.90284C9.23586 8.82092 9.14612 8.75445 9.0487 8.70349C8.95117 8.65261 8.85146 8.6171 8.74958 8.59717C8.64757 8.57725 8.54782 8.56728 8.45041 8.56728C8.24205 8.56728 8.06039 8.60943 7.90531 8.69357C7.75015 8.77778 7.62165 8.88627 7.51976 9.0192C7.41776 9.15213 7.34245 9.30276 7.29373 9.47108C7.24488 9.63947 7.2206 9.80999 7.2206 9.98277C7.2206 10.1688 7.24939 10.3483 7.30702 10.5211C7.36456 10.6939 7.44766 10.8467 7.55631 10.9796C7.66488 11.1126 7.79563 11.2179 7.94854 11.2953C8.10145 11.3729 8.27314 11.4116 8.46374 11.4116C8.56119 11.4116 8.66205 11.3994 8.76623 11.375C8.87033 11.3507 8.97003 11.3131 9.0654 11.2621C9.16063 11.2112 9.2482 11.1447 9.32798 11.0627C9.40775 10.9808 9.47194 10.88 9.52075 10.7603L10.4116 11.2853C10.3405 11.458 10.2353 11.6131 10.0957 11.7504ZM15.1547 10.8931C15.0372 11.1812 14.8744 11.4347 14.6661 11.654C14.4577 11.8733 14.2096 12.0494 13.9215 12.1823C13.6334 12.3153 13.3188 12.3817 12.9775 12.3817C12.6274 12.3817 12.3083 12.3131 12.0202 12.1757C11.7321 12.0384 11.4861 11.8578 11.2823 11.6341C11.0784 11.4104 10.92 11.1545 10.807 10.8665C10.694 10.5786 10.6375 10.2817 10.6375 9.97601C10.6375 9.66595 10.6962 9.36693 10.8136 9.07886C10.931 8.7909 11.095 8.53723 11.3056 8.31796C11.516 8.09864 11.7653 7.92369 12.0535 7.79297C12.3415 7.66234 12.6561 7.59691 12.9974 7.59691C13.3475 7.59691 13.6666 7.66567 13.9547 7.80294C14.2428 7.94029 14.4888 8.12193 14.6927 8.34789C14.8965 8.57384 15.0538 8.8308 15.1647 9.11875C15.2754 9.40678 15.3309 9.69921 15.3309 9.99597C15.3309 10.3061 15.2721 10.6052 15.1547 10.8931ZM15.3396 13.2051C15.3396 13.1074 15.3469 13.0201 15.3614 12.9433C15.3759 12.8664 15.4009 12.7962 15.4362 12.7328C15.4715 12.6695 15.5194 12.6108 15.5797 12.5567C15.64 12.5028 15.7158 12.4497 15.8073 12.3978C15.905 12.3438 15.9867 12.2991 16.0521 12.2637C16.1176 12.2284 16.1695 12.1972 16.208 12.1702C16.2465 12.1432 16.274 12.1188 16.2907 12.0969C16.3073 12.0751 16.3156 12.0497 16.3156 12.0205C16.3156 11.9624 16.2948 11.9156 16.2532 11.8803C16.2116 11.845 16.1524 11.8273 16.0755 11.8273C15.9882 11.8273 15.9122 11.8486 15.8478 11.8912C15.7833 11.9338 15.721 11.9894 15.6607 12.058L15.3426 11.6901C15.3759 11.6527 15.4206 11.6164 15.4768 11.581C15.5329 11.5457 15.5963 11.514 15.667 11.4859C15.7377 11.4578 15.8151 11.4356 15.8993 11.4189C15.9835 11.4023 16.0713 11.394 16.1628 11.394C16.3873 11.394 16.5593 11.4428 16.6789 11.5405C16.7984 11.6382 16.8582 11.7701 16.8582 11.9364C16.8582 12.005 16.8473 12.0662 16.8255 12.1203C16.8036 12.1743 16.7751 12.2227 16.7397 12.2652C16.7044 12.3079 16.6649 12.3453 16.6212 12.3774C16.5776 12.4097 16.5328 12.4393 16.4871 12.4663C16.456 12.485 16.4185 12.5069 16.3749 12.5318C16.3312 12.5567 16.288 12.5822 16.2455 12.6082C16.2029 12.6342 16.1633 12.6602 16.127 12.6861C16.0906 12.7121 16.063 12.7355 16.0443 12.7563H16.8925V13.2051H15.3396Z" fill="url(#paint1_linear)"/>
<path d="M6.8026 21.8176L4.14062 17.833H5.57476V15.0172H8.03043V17.833H9.46457L6.8026 21.8176Z" fill="url(#paint2_linear)"/>
<path d="M14.1974 20.0436L12.2256 17.0985H13.2879V15.0172H15.1069V17.0985H16.1692L14.1974 20.0436Z" fill="url(#paint3_linear)"/>
<defs>
<linearGradient id="paint0_linear" x1="11.748" y1="8.56714" x2="13.8675" y2="12.4247" gradientUnits="userSpaceOnUse">
<stop stop-color="#071F5D"/>
<stop offset="1" stop-color="#01478A"/>
</linearGradient>
<linearGradient id="paint1_linear" x1="0" y1="0.773926" x2="7.88948" y2="24.2289" gradientUnits="userSpaceOnUse">
<stop stop-color="#071F5D"/>
<stop offset="1" stop-color="#01478A"/>
</linearGradient>
<linearGradient id="paint2_linear" x1="4.14063" y1="15.0172" x2="9.47935" y2="23.7668" gradientUnits="userSpaceOnUse">
<stop stop-color="#071F5D"/>
<stop offset="1" stop-color="#01478A"/>
</linearGradient>
<linearGradient id="paint3_linear" x1="12.2256" y1="15.0172" x2="16.1677" y2="21.4919" gradientUnits="userSpaceOnUse">
<stop stop-color="#071F5D"/>
<stop offset="1" stop-color="#01478A"/>
</linearGradient>
</defs>
</svg>
