<svg width="22" height="21" viewBox="0 0 22 21" fill="none" xmlns="http://www.w3.org/2000/svg">
<path d="M10.9994 10.309C13.0236 10.309 14.6659 8.61347 14.6659 6.52328C14.6659 4.91234 12.4851 1.66228 11.4883 0.256743C11.2438 -0.0855809 10.755 -0.0855809 10.5105 0.256743C9.51371 1.66228 7.33293 4.91234 7.33293 6.52328C7.33293 8.61347 8.9752 10.309 10.9994 10.309ZM21.5901 13.2127C21.1395 12.7818 20.4367 12.81 19.9631 13.2127L16.4342 16.1889C16.0026 16.5554 15.4641 16.7527 14.9065 16.7527H10.3883C10.0522 16.7527 9.77724 16.4627 9.77724 16.1083C9.77724 15.7539 10.0522 15.464 10.3883 15.464H13.3788C13.986 15.464 14.5513 15.025 14.6506 14.3927C14.7766 13.5872 14.1885 12.8865 13.4437 12.8865H7.33293C6.30174 12.8865 5.30492 13.261 4.50288 13.9457L2.72693 15.464H0.611077C0.274985 15.464 0 15.7539 0 16.1083V19.9746C0 20.329 0.274985 20.619 0.611077 20.619H14.2381C14.7919 20.619 15.3304 20.4216 15.7658 20.0551L21.5405 15.1821C22.121 14.6947 22.1668 13.7604 21.5901 13.2127Z" fill="url(#paint0_linear)"/>
<defs>
<linearGradient id="paint0_linear" x1="0" y1="0" x2="13.5776" y2="30.3269" gradientUnits="userSpaceOnUse">
<stop stop-color="#071F5D"/>
<stop offset="1" stop-color="#01478A"/>
</linearGradient>
</defs>
</svg>
