<svg width="22" height="22" viewBox="0 0 22 22" fill="none" xmlns="http://www.w3.org/2000/svg">
<g clip-path="url(#clip0)">
<path d="M21.9039 10.6562C21.8245 10.3929 21.683 10.1524 21.4914 9.955C21.3451 9.7972 21.1574 9.68378 20.9496 9.62775C21.0514 9.78862 21.1435 9.97425 21.2123 10.1722C21.2893 10.3744 21.3388 10.5902 21.3539 10.8144C21.3771 11.008 21.3771 11.2037 21.3539 11.3974C21.311 11.2538 21.245 11.1182 21.1586 10.9959C20.9884 10.7658 20.7608 10.5842 20.4986 10.4692C20.2082 10.3385 19.8797 10.3198 19.5763 10.4167C19.273 10.5137 19.0162 10.7195 18.8555 10.9945C18.7868 11.1072 18.7318 11.2296 18.6905 11.3602C17.0653 8.65425 14.1406 6.86263 10.7966 6.86263C10.6261 6.86263 10.457 6.86675 10.2893 6.87637C9.25181 6.87831 8.21956 7.02313 7.22163 7.30675C7.13638 6.71 6.35263 5.5 2.75013 5.5L3.85013 8.95125C3.15843 9.51038 2.57697 10.1935 2.13551 10.9656L0.000132259 11C0.000132259 11 -0.233618 16.5 1.37513 16.5H2.11763C2.62311 17.3568 3.29941 18.1005 4.10451 18.6849L4.12513 22H5.61013C7.41138 22 8.25013 22 8.25013 20.9688V20.4325C9.63705 20.6895 11.0597 20.6858 12.4453 20.4215L12.3751 20.9688C12.3751 22 13.2276 22 15.0426 22H16.5001V18.7137C17.7895 17.8199 18.7173 16.4951 19.1168 14.9779C19.1951 14.9407 19.2735 14.9449 19.3533 14.9449C19.433 14.9449 19.5114 14.9408 19.5898 14.9311C19.9349 14.8679 20.2498 14.7331 20.5234 14.542C20.8932 14.2804 21.1762 13.914 21.336 13.4901C21.3745 13.3622 21.4034 13.2275 21.4226 13.0886L21.424 13.0749C21.7279 12.7146 21.9355 12.2636 22.0001 11.7672C22.0563 11.388 22.0224 11.0008 21.9011 10.637L21.9039 10.6562ZM4.82638 10.6562C5.09989 10.6562 5.36219 10.7649 5.55559 10.9583C5.74898 11.1517 5.85763 11.414 5.85763 11.6875C5.85763 11.961 5.74898 12.2233 5.55559 12.4167C5.36219 12.6101 5.09989 12.7188 4.82638 12.7188C4.55288 12.7188 4.29058 12.6101 4.09718 12.4167C3.90378 12.2233 3.79513 11.961 3.79513 11.6875C3.79513 11.414 3.90378 11.1517 4.09718 10.9583C4.29058 10.7649 4.55288 10.6562 4.82638 10.6562ZM8.08513 9.625C7.92985 9.6748 7.76195 9.66802 7.61119 9.60586C7.46043 9.54369 7.33655 9.43015 7.26151 9.28537C7.23812 9.21323 7.2303 9.13695 7.23856 9.06156C7.24683 8.98617 7.27099 8.91339 7.30945 8.84802C7.34792 8.78266 7.39981 8.7262 7.4617 8.68237C7.52359 8.63854 7.59408 8.60833 7.66851 8.59375C8.57287 8.3769 9.50102 8.27526 10.4309 8.29125L10.5698 8.28987C11.4938 8.28987 12.3903 8.39988 13.2496 8.60888C13.4229 8.64188 13.6099 8.85912 13.6099 9.12037C13.6098 9.17595 13.601 9.23117 13.5838 9.284C13.5356 9.37315 13.4677 9.4501 13.3853 9.50897C13.3028 9.56784 13.208 9.60705 13.108 9.62363H12.8976C12.1295 9.43866 11.342 9.34633 10.5519 9.34862H10.4295C9.59763 9.34862 8.78913 9.449 8.01501 9.63875L8.08513 9.625ZM20.0476 13.6538C19.8621 13.7887 19.6496 13.882 19.4248 13.9274L19.2501 13.9288V13.75V13.3237C19.477 13.4956 19.7644 13.5988 20.0751 13.5988H20.104L20.0476 13.6538ZM20.1576 12.7188C20.0298 12.7367 19.8996 12.7132 19.7861 12.6519C19.6725 12.5905 19.5816 12.4945 19.5265 12.3777C19.4635 12.2577 19.4307 12.1241 19.4309 11.9885C19.4312 11.8529 19.4644 11.7194 19.5279 11.5995C19.5933 11.509 19.6895 11.4456 19.7985 11.4213C19.9074 11.397 20.0215 11.4134 20.1191 11.4675C20.2437 11.5153 20.3509 11.5998 20.4265 11.7098C20.5021 11.8197 20.5426 11.95 20.5426 12.0835V12.0849C20.5698 12.2755 20.5693 12.4691 20.5413 12.6596C20.4136 12.6842 20.2835 12.6944 20.1535 12.6899L20.1576 12.7188Z" fill="url(#paint0_linear)"/>
<path d="M11 4.12498H9.625V3.89123H9.96875V2.39248H9.625L10.3813 1.63623H10.6562V3.89123H11V4.12498Z" fill="url(#paint1_linear)"/>
<path d="M10.3125 1.03125C10.5834 1.03134 10.8517 1.0848 11.102 1.18856C11.3523 1.29233 11.5797 1.44438 11.7712 1.63603C11.9627 1.82768 12.1146 2.05517 12.2182 2.30552C12.3218 2.55588 12.3751 2.82418 12.375 3.09512C12.3749 3.36607 12.3215 3.63434 12.2177 3.88462C12.1139 4.1349 11.9619 4.3623 11.7702 4.55382C11.5786 4.74534 11.3511 4.89724 11.1007 5.00084C10.8504 5.10444 10.5821 5.15772 10.3111 5.15762C9.76393 5.15744 9.23923 4.9399 8.85243 4.55285C8.46564 4.16579 8.24844 3.64094 8.24863 3.09375C8.24881 2.54656 8.46635 2.02185 8.8534 1.63506C9.24046 1.24826 9.76531 1.03107 10.3125 1.03125ZM10.3125 0C9.49199 0 8.70508 0.325948 8.12489 0.906138C7.5447 1.48633 7.21875 2.27324 7.21875 3.09375C7.21875 3.91426 7.5447 4.70117 8.12489 5.28136C8.70508 5.86155 9.49199 6.1875 10.3125 6.1875C11.133 6.1875 11.9199 5.86155 12.5001 5.28136C13.0803 4.70117 13.4062 3.91426 13.4062 3.09375C13.4062 2.27324 13.0803 1.48633 12.5001 0.906138C11.9199 0.325948 11.133 0 10.3125 0V0Z" fill="url(#paint2_linear)"/>
</g>
<defs>
<linearGradient id="paint0_linear" x1="-0.0117187" y1="5.5" x2="9.22607" y2="31.3292" gradientUnits="userSpaceOnUse">
<stop stop-color="#071F5D"/>
<stop offset="1" stop-color="#01478A"/>
</linearGradient>
<linearGradient id="paint1_linear" x1="9.625" y1="1.63623" x2="11.7991" y2="4.15071" gradientUnits="userSpaceOnUse">
<stop stop-color="#071F5D"/>
<stop offset="1" stop-color="#01478A"/>
</linearGradient>
<linearGradient id="paint2_linear" x1="7.21875" y1="0" x2="11.4679" y2="8.89513" gradientUnits="userSpaceOnUse">
<stop stop-color="#071F5D"/>
<stop offset="1" stop-color="#01478A"/>
</linearGradient>
<clipPath id="clip0">
<rect width="22" height="22" fill="white"/>
</clipPath>
</defs>
</svg>
